<svg width="18" height="15" viewBox="0 0 18 15" fill="none" xmlns="http://www.w3.org/2000/svg">
<path fill-rule="evenodd" clip-rule="evenodd" d="M7.527 14C7.15564 14.0004 6.7899 13.9093 6.46203 13.7349C6.13417 13.5605 5.85426 13.3081 5.647 13H9.407C9.003 13.606 8.303 14 7.527 14ZM12.156 12H1.664L2.374 10.618V6C2.374 3.243 4.682 1 7.518 1C10.002 1 12.08 2.72 12.557 5H13.597C13.105 2.167 10.57 0 7.517 0C4.115 0 1.347 2.692 1.347 6V10.382L0 13H4.49C4.979 14.186 6.175 15 7.526 15C8.876 15 10.074 14.186 10.562 13H12.155V12H12.156Z" fill="white"/>
<path fill-rule="evenodd" clip-rule="evenodd" d="M17.813 9H15.242V6.5H13.699V9H11.127V10.5H13.7V13H15.243V10.5H17.814L17.813 9Z" fill="white"/>
</svg>
