<svg width="34" height="22" viewBox="0 0 34 22" fill="none" xmlns="http://www.w3.org/2000/svg">
<path d="M28.83 17.5H17V4.5H28.83C29.476 4.5 30 5.024 30 5.67V16.33C30 16.6403 29.8767 16.9379 29.6573 17.1573C29.4379 17.3767 29.1403 17.5 28.83 17.5Z" fill="#7346F3"/>
<path d="M26.967 10.133H24.367V7.533H22.633V10.133H20.033V11.867H26.967V10.133ZM22.633 12.127V14.467H24.366V13.272C24.366 12.444 23.489 12.127 22.633 12.127Z" fill="white"/>
<path d="M5.17 4.5H17V17.5H5.17C4.8597 17.5 4.5621 17.3767 4.34269 17.1573C4.12327 16.9379 4 16.6403 4 16.33V5.67C4 5.024 4.524 4.5 5.17 4.5Z" fill="#03C75A"/>
<path fill-rule="evenodd" clip-rule="evenodd" d="M11.764 11.225L9.40301 7.815H7.44501V14.185H9.49601V10.776L11.857 14.185H13.815V7.815H11.764V11.225Z" fill="white"/>
</svg>
