<svg width="54" height="16" viewBox="0 0 54 16" fill="none" xmlns="http://www.w3.org/2000/svg">
<path fill-rule="evenodd" clip-rule="evenodd" d="M10.14 4H13.318V12H10.129L7.178 7.962V12H4V4H7.188L10.14 8.035V4ZM47.43 9.008L50 12H46.346L44.45 9.501V12H41.27V4H45.241C47.542 4 49.287 4.661 49.287 6.722C49.287 7.949 48.558 8.712 47.43 9.008ZM45.868 7.378C45.9563 7.31388 46.0275 7.22894 46.0751 7.13073C46.1227 7.03252 46.1454 6.92406 46.141 6.815C46.141 6.566 46.057 6.372 45.881 6.227C45.703 6.084 45.338 6.012 45.016 6.012H44.348V7.588H45.029C45.325 7.588 45.681 7.518 45.868 7.378ZM33.523 4H39.967V6.083H36.671V7.023H39.707V8.991H36.671V9.916H40.067V12H33.523V4ZM20.969 4L24.315 12H20.78L20.47 10.954H17.844L17.535 12H14L17.345 4H20.969ZM18.366 9.105H19.948L19.201 6.466H19.113L18.366 9.105ZM29.375 4H32.841L29.265 12H26.263L22.688 4H26.154L27.72 8.822H27.808L29.375 4Z" fill="white"/>
</svg>
