<svg width="29" height="29" viewBox="0 0 29 29" fill="none" xmlns="http://www.w3.org/2000/svg">
<path d="M24.75 14.5C24.75 17.1522 23.6964 19.6957 21.8211 21.5711C19.9457 23.4464 17.4022 24.5 14.75 24.5C12.0978 24.5 9.5543 23.4464 7.67893 21.5711C5.80357 19.6957 4.75 17.1522 4.75 14.5C4.75 11.8478 5.80357 9.3043 7.67893 7.42893C9.5543 5.55357 12.0978 4.5 14.75 4.5C17.4022 4.5 19.9457 5.55357 21.8211 7.42893C23.6964 9.3043 24.75 11.8478 24.75 14.5ZM16.423 9.8V14.828L12.923 9.8H10.05V19.213H13.075V14.17L16.575 19.2H19.458V9.8H16.423Z" fill="white"/>
</svg>
